<svg xmlns="http://www.w3.org/2000/svg" viewBox="0 0 32 32">
  <rect width="32" height="32" rx="7" fill="#1f63ae"/>
  <g fill="none" stroke="#fff" stroke-width="2.4" stroke-linecap="round" stroke-linejoin="round">
    <path d="M10 7.5C7.5 7.5 7.5 9 7.5 11v2.5c0 1.5-1 2.5-2 2.5 1 0 2 1 2 2.5V21c0 2 0 3.5 2.5 3.5"/>
    <path d="M22 7.5c2.5 0 2.5 1.5 2.5 3.5v2.5c0 1.5 1 2.5 2 2.5-1 0-2 1-2 2.5V21c0 2 0 3.5-2.5 3.5"/>
  </g>
  <path d="M13.5 11.6 20.3 16l-6.8 4.4z" fill="#fff" stroke="#fff" stroke-width="1.2" stroke-linejoin="round"/>
</svg>
